<svg xmlns="http://www.w3.org/2000/svg" viewBox="0 0 1600 500"><path fill="#000" d="M97.9245 311H108.924C127.591 305.667 147.591 296.333 156.591 280C160.258 272.667 161.591 264.667 161.591 254.333V228.667V181.333C161.591 152.333 170.591 151 179.258 143.667C188.591 135.333 199.591 130.333 208.258 117L208.924 108C199.591 117 188.258 119 180.258 119C163.924 119 147.924 110.667 130.591 110.667C95.2578 110.667 75.9245 145.667 70.5911 158.667H78.5911C81.5911 150.667 89.9245 145.333 100.924 145.333C114.591 145.333 127.924 150.333 141.924 150.333C144.924 150.333 147.591 150 150.258 149.667C146.591 152 142.924 154.667 139.258 157.333C119.924 172.333 118.591 179.333 118.591 194V202.667C100.591 205.333 75.9245 211 75.9245 240.667C75.9245 247.667 77.5911 254.333 80.9245 260.333H87.2578C86.9245 259.333 86.9245 258 86.9245 256.667C86.9245 249.333 90.2578 239.333 106.258 239.333C110.258 239.333 114.258 239.333 118.591 239.333V263C118.591 269 118.258 274.667 117.591 280.333C115.591 294.333 108.591 305.333 97.9245 311ZM94.5911 317C117.258 317 144.258 328 170.258 335C177.258 331.667 180.258 331 180.258 307.667V181.667C180.258 145.333 192.591 143 217.924 126L237.591 113L242.591 118.667C231.258 125.667 227.258 137.667 227.258 154.667V283C209.258 313.667 185.258 339.667 157.258 360C151.258 364.333 145.258 367.667 135.591 367.667C131.258 367.667 126.591 367 122.258 366.333L91.5911 362.333C89.9245 362.333 88.2578 362 86.9245 362C79.5911 362 74.2578 366.667 74.2578 374C74.2578 382.667 82.2578 389.333 90.5911 389.333C90.5911 389.333 90.5911 389.333 90.9245 389V394.333C65.2578 394.333 54.2578 377.333 54.2578 355.333C54.2578 332.333 72.2578 317 94.5911 317ZM423.336 323L429.669 332.333L380.003 366L346.336 335.667L357.669 324.333V242.333L333.669 221.667L319.336 233V324.333L333.669 337.333L301.669 366L263.336 335.667L276.336 324.333V236L263.336 221.667L250.669 229.667L246.003 223L292.336 191.333L318.003 220L354.336 191.333L392.336 223.667L406.336 212.333L412.336 219.333L396.003 232.667V319.667L410.336 332.333L423.336 323ZM457.216 166.333C457.216 155 449.549 151.333 441.216 148.667V144L495.549 105.667H501.883V321.333L514.549 334L524.216 326L528.883 332.333L487.549 361.333L452.216 331L439.549 339L434.883 332.333L457.216 318V166.333ZM569.549 239.667C557.549 239.667 548.549 235 541.883 228.667L538.549 235L604.216 332.333L618.549 323L624.883 331L573.883 364.333L508.216 268.667L557.883 192H560.883C564.883 198.667 572.549 204.667 582.549 204.667C592.549 204.667 600.216 198.667 604.216 192H610.549C607.216 215.667 596.549 239.667 569.549 239.667Z"/><path fill="#000" d="M649.404 318V230C649.07 217 640.07 214 633.404 214V209.333L649.404 192.333V149.333L723.404 107.333L768.07 135L727.07 158L690.737 135V154.667V193H733.737L718.07 211.333H690.737V321.333L709.737 337L720.737 331L725.404 337.333L679.737 361.333L644.404 331L631.737 339L627.07 332.333L649.404 318ZM797.227 310L835.56 335.667V239.667L797.227 214.333V310ZM742.893 338.667L737.227 331.333L754.227 317.667C754.227 289 754.227 260.333 754.227 231.667L829.227 188.667L877.227 225.333V316.333L803.56 361.333L756.893 327.333L742.893 338.667ZM995.982 319.333L1002.32 326.667L952.315 362.667L915.648 334L904.648 342L899.648 335.667L920.648 321.333V233.333L909.315 219L896.648 227L891.982 220.667L936.648 190.333L960.982 216.667L984.315 190H987.648C990.982 195 996.648 198.333 1002.65 198.333C1009.65 198.333 1014.98 194.667 1017.65 190H1027.65C1023.98 231.333 1004.65 236.667 994.648 236.667C987.315 236.667 975.648 233.333 964.648 223V321.333L977.982 331.667L995.982 319.333ZM1192.36 336.333L1155.69 366L1122.69 337.333L1136.69 324.333V242.333L1113.69 221.333L1099.02 230V324.333L1113.36 337.333L1081.36 366L1043.02 335.667L1056.02 324.333V236L1043.02 221.667L1030.36 229.667L1025.69 223L1072.02 191.333L1096.36 218.667L1140.02 191.333L1173.36 219.667L1219.02 191.333L1253.69 221L1264.69 212.333L1270.69 219.333L1254.02 233V316.667L1269.69 332.333L1284.02 321.667V334L1234.69 366L1201.69 337.333L1215.69 324.333V242.333L1192.69 221.333L1175.02 232V321L1192.36 336.333ZM1292.18 339.667L1286.18 332.333L1302.18 319.667V231.667L1381.85 190.333L1415.51 241.333V243L1343.51 287.667V302L1383.51 329.333L1420.18 300.667L1425.18 308.667L1356.51 364.333L1306.85 327.667L1292.18 339.667ZM1343.51 276.333L1377.18 255L1349.85 215.667L1343.51 219.333V276.333ZM1532.7 319.333L1539.03 326.667L1489.03 362.667L1452.37 334L1441.37 342L1436.37 335.667L1457.37 321.333V233.333L1446.03 219L1433.37 227L1428.7 220.667L1473.37 190.333L1497.7 216.667L1521.03 190H1524.37C1527.7 195 1533.37 198.333 1539.37 198.333C1546.37 198.333 1551.7 194.667 1554.37 190H1564.37C1560.7 231.333 1541.37 236.667 1531.37 236.667C1524.03 236.667 1512.37 233.333 1501.37 223V321.333L1514.7 331.667L1532.7 319.333Z"/></svg>