<svg xmlns="http://www.w3.org/2000/svg" viewBox="0 0 32 32">
  <path fill="#7360F2" d="M16 2C8.8 2 3 6.9 3 13.9c0 3.9 1.8 7.2 4.7 9.4-.2 1.9-.8 4.6-1.6 6 2.4-.5 5-1.7 6.5-2.6 1.1.2 2.2.4 3.4.4 7.2 0 13-4.9 13-11.9S23.2 2 16 2z"/>
  <path fill="#fff" d="M20.9 19.6c-.3.8-1.5 1.5-2.3 1.6-.6.1-1.4.2-4.1-.9-3.4-1.4-5.6-4.9-5.8-5.1-.2-.2-1.4-1.9-1.4-3.6s.9-2.5 1.2-2.9c.3-.3.7-.4 1-.4h.7c.2 0 .5-.1.8.6.3.7 1 2.4 1.1 2.6.1.2.1.4 0 .6-.1.2-.2.4-.4.6l-.6.7c-.2.2-.4.4-.2.8.2.4 1 1.6 2.1 2.6 1.4 1.3 2.6 1.7 3 1.9.4.2.6.1.8-.1.2-.2 1-1.1 1.2-1.5.3-.4.5-.3.9-.2.4.1 2.1 1 2.4 1.2.4.2.6.3.7.4.1.2.1.9-.2 1.7z"/>
</svg>
