<svg width="1665" height="252" viewBox="0 0 1665 252" fill="none" xmlns="http://www.w3.org/2000/svg">
<path d="M169.77 197.4C160.703 197.4 152.703 195.867 145.77 192.8C138.97 189.6 133.17 185.4 128.37 180.2C123.703 174.867 120.103 168.933 117.57 162.4C115.17 155.867 113.97 149.2 113.97 142.4V139.6C113.97 132.8 115.237 126.133 117.77 119.6C120.303 112.933 123.97 107 128.77 101.8C133.57 96.6 139.37 92.4667 146.17 89.4C153.103 86.2 160.97 84.6 169.77 84.6C178.703 84.6 186.57 86.2 193.37 89.4C200.303 92.4667 206.17 96.6 210.97 101.8C215.77 107 219.37 112.933 221.77 119.6C224.303 126.133 225.57 132.8 225.57 139.6V142.4C225.57 149.2 224.37 155.867 221.97 162.4C219.57 168.933 215.97 174.867 211.17 180.2C206.503 185.4 200.703 189.6 193.77 192.8C186.837 195.867 178.837 197.4 169.77 197.4ZM169.77 184C178.57 184 185.97 182.067 191.97 178.2C198.103 174.2 202.77 169 205.97 162.6C209.17 156.067 210.77 148.867 210.77 141C210.77 133 209.103 125.8 205.77 119.4C202.57 112.867 197.903 107.733 191.77 104C185.637 100.133 178.303 98.2 169.77 98.2C161.37 98.2 154.103 100.133 147.97 104C141.837 107.733 137.103 112.867 133.77 119.4C130.57 125.8 128.97 133 128.97 141C128.97 148.867 130.57 156.067 133.77 162.6C136.97 169 141.57 174.2 147.57 178.2C153.703 182.067 161.103 184 169.77 184ZM256.159 194V88H268.159V132.6H265.759C265.759 122.867 267.092 114.467 269.759 107.4C272.559 100.333 276.692 94.8667 282.159 91C287.626 87 294.559 85 302.959 85H303.559C311.959 85 318.892 86.9333 324.359 90.8C329.826 94.6667 333.892 100.133 336.559 107.2C339.226 114.267 340.559 122.733 340.559 132.6H335.759C335.759 122.867 337.092 114.467 339.759 107.4C342.559 100.333 346.692 94.8667 352.159 91C357.759 87 364.759 85 373.159 85H373.759C382.159 85 389.092 86.9333 394.559 90.8C400.159 94.6667 404.292 100.133 406.959 107.2C409.759 114.267 411.159 122.733 411.159 132.6V194H396.159V129.2C396.159 119.867 393.892 112.467 389.359 107C384.826 101.533 378.292 98.8 369.759 98.8C360.959 98.8 353.959 101.667 348.759 107.4C343.692 113 341.159 120.6 341.159 130.2V194H326.159V129.2C326.159 119.867 323.892 112.467 319.359 107C314.826 101.533 308.292 98.8 299.759 98.8C290.959 98.8 283.959 101.667 278.759 107.4C273.692 113 271.159 120.6 271.159 130.2V194H256.159ZM448.542 194V88.2H460.542V132.6H458.142C458.142 122.733 459.609 114.267 462.542 107.2C465.475 100.133 469.875 94.6667 475.742 90.8C481.609 86.9333 489.009 85 497.942 85H498.542C511.875 85 521.809 89.2 528.342 97.6C534.875 105.867 538.142 117.533 538.142 132.6V194H523.342V129.4C523.342 120.2 520.809 112.8 515.742 107.2C510.675 101.6 503.609 98.8 494.542 98.8C485.209 98.8 477.675 101.733 471.942 107.6C466.342 113.333 463.542 120.933 463.542 130.4V194H448.542ZM581.095 194V88.2H595.895V194H581.095ZM564.095 100.2V88.2H595.895V100.2H564.095ZM584.295 68.6C580.695 68.6 577.962 67.6667 576.095 65.8C574.362 63.8 573.495 61.3333 573.495 58.4C573.495 55.4667 574.362 53.0667 576.095 51.2C577.962 49.2 580.695 48.2 584.295 48.2C587.895 48.2 590.562 49.2 592.295 51.2C594.028 53.0667 594.895 55.4667 594.895 58.4C594.895 61.3333 594.028 63.8 592.295 65.8C590.562 67.6667 587.895 68.6 584.295 68.6ZM671.861 197C659.194 197 649.527 192.933 642.861 184.8C636.194 176.533 632.861 165.067 632.861 150.4V88H647.661V153.4C647.661 162.6 650.061 169.933 654.861 175.4C659.794 180.733 666.594 183.4 675.261 183.4C684.327 183.4 691.527 180.533 696.861 174.8C702.327 169.067 705.061 161.4 705.061 151.8V88H720.061V194H708.061V149.8H710.461C710.461 159.667 709.061 168.133 706.261 175.2C703.461 182.133 699.261 187.533 693.661 191.4C688.061 195.133 680.994 197 672.461 197H671.861ZM759.284 194V88H771.284V132.6H768.884C768.884 122.867 770.217 114.467 772.884 107.4C775.684 100.333 779.817 94.8667 785.284 91C790.751 87 797.684 85 806.084 85H806.684C815.084 85 822.017 86.9333 827.484 90.8C832.951 94.6667 837.017 100.133 839.684 107.2C842.351 114.267 843.684 122.733 843.684 132.6H838.884C838.884 122.867 840.217 114.467 842.884 107.4C845.684 100.333 849.817 94.8667 855.284 91C860.884 87 867.884 85 876.284 85H876.884C885.284 85 892.217 86.9333 897.684 90.8C903.284 94.6667 907.417 100.133 910.084 107.2C912.884 114.267 914.284 122.733 914.284 132.6V194H899.284V129.2C899.284 119.867 897.017 112.467 892.484 107C887.951 101.533 881.417 98.8 872.884 98.8C864.084 98.8 857.084 101.667 851.884 107.4C846.817 113 844.284 120.6 844.284 130.2V194H829.284V129.2C829.284 119.867 827.017 112.467 822.484 107C817.951 101.533 811.417 98.8 802.884 98.8C794.084 98.8 787.084 101.667 781.884 107.4C776.817 113 774.284 120.6 774.284 130.2V194H759.284Z" fill="#D1D5DB"/>
<path d="M1091.01 133.609C1105.33 133.609 1112.49 137.255 1112.49 144.547C1112.49 150.016 1108.52 156.396 1100.58 163.688C1088.73 174.495 1072.78 183.154 1052.73 189.664C1051.82 189.664 1050.77 188.753 1049.6 186.93C1048.56 185.107 1047.71 183.74 1047.06 182.828C1046.54 181.786 1046.15 181.135 1045.89 180.875C1060.86 175.927 1073.17 169.938 1082.8 162.906C1089.32 158.219 1092.57 154.378 1092.57 151.383C1092.57 148.388 1088.73 146.891 1081.05 146.891C1073.36 146.891 1062.1 148.714 1047.26 152.359C1040.49 152.099 1034.63 149.69 1029.68 145.133C1025.38 141.096 1023.23 137.06 1023.23 133.023C1023.23 128.857 1024.41 125.081 1026.75 121.695C1029.09 118.18 1032.22 114.924 1036.12 111.93C1040.03 108.935 1044.59 106.201 1049.8 103.727C1062.56 97.6068 1075.77 94.5469 1089.45 94.5469C1093.48 94.5469 1097.39 94.9375 1101.16 95.7188C1104.29 95.7188 1106.11 97.0859 1106.63 99.8203C1107.15 102.555 1107.41 107.047 1107.41 113.297C1099.73 109.781 1091.07 108.023 1081.44 108.023C1069.46 108.023 1059.56 110.432 1051.75 115.25C1043.68 119.938 1039.51 126.057 1039.25 133.609C1039.25 137.255 1041.92 139.078 1047.26 139.078L1061.52 137.516C1073.76 134.911 1083.59 133.609 1091.01 133.609ZM1154.09 165.25L1154.48 134C1154.48 129.052 1154.03 124.82 1153.12 121.305H1122.84L1122.45 107.828H1151.75V57.4375C1152.14 56.2656 1152.92 55.0938 1154.09 53.9219C1155.92 52.099 1157.41 51.1875 1158.59 51.1875C1159.89 51.1875 1160.99 51.3177 1161.91 51.5781C1162.82 51.8385 1163.79 52.75 1164.84 54.3125C1166.92 62.9062 1167.96 75.862 1167.96 93.1797C1167.96 97.4766 1168.16 101.708 1168.55 105.875C1172.71 105.354 1176.88 105.094 1181.05 105.094C1181.05 105.094 1184.43 105.094 1191.2 105.094C1193.68 105.094 1195.96 104.964 1198.04 104.703L1197.45 118.766L1168.94 117.984L1169.91 185.367C1167.57 186.409 1165.55 186.93 1163.86 186.93C1157.35 186.93 1154.09 179.703 1154.09 165.25ZM1204.48 158.023C1204.48 155.94 1204.29 153.076 1203.9 149.43C1203.64 145.654 1203.38 141.552 1203.12 137.125C1202.86 132.698 1202.73 128.206 1202.73 123.648C1202.73 119.091 1203.12 114.924 1203.9 111.148C1205.59 102.685 1209.11 98.4531 1214.45 98.4531C1218.09 99.4948 1220.5 100.797 1221.67 102.359C1222.97 103.922 1223.62 105.875 1223.62 108.219C1223.62 110.432 1223.04 113.232 1221.87 116.617C1217.57 127.945 1215.42 138.167 1215.42 147.281C1215.42 150.276 1215.62 153.466 1216.01 156.852C1218.09 165.576 1225.25 169.938 1237.49 169.938C1243.87 169.938 1249.93 168.831 1255.66 166.617C1266.59 162.581 1274.02 157.828 1277.92 152.359C1279.09 146.37 1279.68 141.161 1279.68 136.734C1279.68 132.177 1279.48 128.141 1279.09 124.625C1278.83 121.109 1278.44 117.268 1277.92 113.102C1277.53 108.805 1277.27 104.117 1277.14 99.0391C1278.83 98.2578 1280.46 97.8672 1282.02 97.8672C1283.72 97.8672 1285.41 98.7135 1287.1 100.406C1288.92 102.099 1290.42 105.289 1291.59 109.977C1292.9 114.664 1293.74 120.198 1294.13 126.578C1294.52 132.828 1294.72 139.339 1294.72 146.109C1294.85 152.88 1294.91 159.456 1294.91 165.836C1294.91 172.086 1295.17 177.49 1295.7 182.047C1294.13 183.479 1292.64 184.195 1291.2 184.195C1285.99 184.195 1282.15 178.987 1279.68 168.57C1277.99 170.003 1275.12 171.76 1271.09 173.844C1262.49 178.531 1252.34 181.656 1240.62 183.219C1238.4 183.479 1235.93 183.609 1233.2 183.609C1230.46 183.609 1227.01 183.089 1222.84 182.047C1218.81 181.005 1214.97 178.596 1211.32 174.82C1207.67 171.044 1205.4 165.445 1204.48 158.023ZM1399.41 27.1641C1399.41 39.6641 1399.02 51.9036 1398.23 63.8828C1397.58 75.7318 1396.93 87.3854 1396.28 98.8438C1395.76 110.172 1395.5 122.281 1395.5 135.172C1395.5 147.932 1396.41 161.474 1398.23 175.797C1398.23 178.792 1397.65 180.94 1396.48 182.242C1395.43 183.544 1393.61 184.195 1391.01 184.195C1384.89 184.195 1381.83 179.117 1381.83 168.961V162.516C1363.34 176.318 1347.71 183.219 1334.95 183.219C1329.88 183.219 1324.67 181.982 1319.33 179.508C1314.12 177.034 1309.17 172.021 1304.48 164.469C1303.83 161.344 1303.51 158.154 1303.51 154.898C1303.51 151.643 1304.09 147.737 1305.27 143.18C1306.57 138.492 1309.11 133.674 1312.88 128.727C1316.79 123.779 1321.48 119.417 1326.95 115.641C1338.92 107.568 1351.88 103.531 1365.81 103.531C1371.8 103.531 1377.53 104.443 1383 106.266C1383 103.922 1383.13 99.8203 1383.39 93.9609C1383.78 88.1016 1384.17 81.9167 1384.56 75.4062C1385.34 58.4792 1385.86 48.5182 1386.12 45.5234C1386.39 42.3984 1386.71 39.7943 1387.1 37.7109C1387.62 35.4974 1388.34 33.6094 1389.25 32.0469C1391.2 28.7917 1394.59 27.1641 1399.41 27.1641ZM1317.77 153.336C1317.77 163.622 1321.48 168.766 1328.9 168.766C1330.07 168.766 1331.37 168.635 1332.8 168.375C1338.14 168.375 1344.72 166.812 1352.53 163.688C1367.38 157.828 1376.42 152.75 1379.68 148.453V122.477C1379.68 117.919 1375.97 115.641 1368.55 115.641C1367.64 115.51 1366.4 115.445 1364.84 115.445C1363.4 115.445 1361.12 115.771 1358 116.422C1354.88 117.073 1351.36 118.245 1347.45 119.938C1343.55 121.63 1339.71 123.714 1335.93 126.188C1327.99 131.526 1322.52 137.776 1319.52 144.938C1318.35 147.672 1317.77 150.471 1317.77 153.336ZM1427.14 92.2031C1428.83 116.552 1430.27 144.742 1431.44 176.773C1430.66 180.81 1427.53 182.828 1422.06 182.828C1420.63 182.828 1419.13 182.568 1417.57 182.047C1416.14 181.396 1415.23 180.549 1414.84 179.508V92.2031H1427.14ZM1408.98 65.6406C1408.98 61.0833 1411.65 58.8047 1416.98 58.8047C1420.5 58.8047 1423.36 59.5859 1425.58 61.1484C1425.97 62.5807 1426.16 64.013 1426.16 65.4453C1426.16 66.7474 1425.64 68.0495 1424.6 69.3516C1423.56 70.6536 1422 71.3047 1419.91 71.3047C1417.83 71.3047 1415.75 70.849 1413.66 69.9375C1411.58 68.8958 1410.02 67.4635 1408.98 65.6406ZM1444.72 146.891C1444.72 131.526 1451.36 119.156 1464.64 109.781C1475.19 102.359 1487.88 97.8672 1502.73 96.3047C1503.51 96.3047 1505.33 96.3047 1508.2 96.3047C1511.06 96.3047 1514.9 97.151 1519.72 98.8438C1530.4 102.49 1537.69 108.935 1541.59 118.18C1543.16 121.826 1543.94 124.951 1543.94 127.555C1543.94 130.029 1543.87 131.786 1543.74 132.828C1543.74 149.104 1537.56 161.93 1525.19 171.305C1513.73 179.898 1499.41 184.195 1482.22 184.195C1469.85 184.195 1460.47 181.331 1454.09 175.602C1447.84 169.872 1444.72 160.302 1444.72 146.891ZM1458.2 151.578C1458.2 159.651 1460.34 165.12 1464.64 167.984C1467.9 170.068 1473.36 171.109 1481.05 171.109C1488.73 171.109 1495.5 170.523 1501.36 169.352C1507.22 168.18 1512.43 166.161 1516.98 163.297C1526.75 157.047 1531.63 147.346 1531.63 134.195C1531.63 126.383 1529.55 120.003 1525.38 115.055C1520.83 109.716 1514.84 107.047 1507.41 107.047C1502.34 107.958 1497.19 108.935 1491.98 109.977C1486.91 111.018 1482.09 113.036 1477.53 116.031C1467.64 122.411 1461.19 134.26 1458.2 151.578Z" fill="#2DB87A"/>
<path d="M596.84 57.4729C596.84 64.3615 591.28 69.9458 584.42 69.9458C577.561 69.9458 572 64.3615 572 57.4729C572 50.5843 577.561 45 584.42 45C591.28 45 596.84 50.5843 596.84 57.4729Z" fill="#2DB87A"/>
</svg>
